<svg width="707" height="243" viewBox="0 0 707 243" fill="none" xmlns="http://www.w3.org/2000/svg">
<path d="M226 195.569C201 195.569 168.5 167.569 149.5 151.569H8.5C72.4738 194.416 150 238.569 175.5 242.569C201 246.569 325 164.069 325 164.069H702.5V151.569C702.5 151.569 306.5 154.069 305.5 151.569C304.5 149.069 251 195.569 226 195.569Z" fill="white"/>
<path d="M441.5 135.069H382C328.695 58.2325 307.215 63.9578 305.599 64.5308C305.534 64.556 305.5 64.5692 305.5 64.5692C305.5 64.5692 305.533 64.5544 305.599 64.5308C307.342 63.8612 331.671 54.6962 349.5 58.0692C368 61.5692 441.5 135.069 441.5 135.069Z" fill="white"/>
<path d="M0 138.569L148 140.569C148 140.569 314 37.5692 342.5 39.0692C371 40.5692 471.5 138.569 471.5 138.569H557C557 138.569 502.5 87.0692 456 54.5692C409.5 22.0692 392 3.56915 365 0.0691639C338 -3.43083 134 127.069 134 127.069L0 124.569V138.569Z" fill="white"/>
<ellipse cx="291" cy="105.069" rx="19" ry="24" fill="white"/>
<path d="M347.559 242H337.715L355.638 191.091H367.023L384.97 242H375.126L361.529 201.531H361.131L347.559 242ZM347.882 222.039H374.729V229.447H347.882V222.039ZM394.721 242.547C393.213 242.547 391.921 242.017 390.843 240.956C389.766 239.895 389.236 238.603 389.252 237.078C389.236 235.587 389.766 234.311 390.843 233.25C391.921 232.189 393.213 231.659 394.721 231.659C396.18 231.659 397.447 232.189 398.524 233.25C399.618 234.311 400.173 235.587 400.19 237.078C400.173 238.089 399.908 239.009 399.394 239.837C398.897 240.666 398.234 241.329 397.406 241.826C396.594 242.307 395.699 242.547 394.721 242.547ZM407.778 242V191.091H426.869C430.78 191.091 434.061 191.77 436.713 193.129C439.381 194.488 441.395 196.394 442.753 198.847C444.129 201.283 444.817 204.125 444.817 207.373C444.817 210.638 444.121 213.471 442.729 215.874C441.353 218.261 439.323 220.108 436.638 221.418C433.954 222.71 430.656 223.357 426.745 223.357H413.148V215.7H425.502C427.789 215.7 429.662 215.385 431.12 214.756C432.578 214.109 433.655 213.173 434.351 211.947C435.064 210.704 435.42 209.179 435.42 207.373C435.42 205.567 435.064 204.025 434.351 202.749C433.639 201.457 432.553 200.479 431.095 199.816C429.637 199.137 427.756 198.797 425.452 198.797H417.001V242H407.778ZM434.078 218.932L446.681 242H436.39L424.011 218.932H434.078ZM456.351 242.547C454.843 242.547 453.551 242.017 452.473 240.956C451.396 239.895 450.866 238.603 450.883 237.078C450.866 235.587 451.396 234.311 452.473 233.25C453.551 232.189 454.843 231.659 456.351 231.659C457.81 231.659 459.077 232.189 460.155 233.25C461.248 234.311 461.803 235.587 461.82 237.078C461.803 238.089 461.538 239.009 461.025 239.837C460.527 240.666 459.865 241.329 459.036 241.826C458.224 242.307 457.329 242.547 456.351 242.547ZM469.408 242V191.091H502.519V198.822H478.631V212.643H500.804V220.374H478.631V234.269H502.718V242H469.408ZM514.974 242.547C513.465 242.547 512.173 242.017 511.096 240.956C510.019 239.895 509.488 238.603 509.505 237.078C509.488 235.587 510.019 234.311 511.096 233.25C512.173 232.189 513.465 231.659 514.974 231.659C516.432 231.659 517.7 232.189 518.777 233.25C519.871 234.311 520.426 235.587 520.442 237.078C520.426 238.089 520.161 239.009 519.647 239.837C519.15 240.666 518.487 241.329 517.658 241.826C516.846 242.307 515.951 242.547 514.974 242.547ZM534.568 242H524.725L542.647 191.091H554.032L571.98 242H562.136L548.538 201.531H548.141L534.568 242ZM534.891 222.039H561.738V229.447H534.891V222.039ZM581.731 242.547C580.223 242.547 578.93 242.017 577.853 240.956C576.776 239.895 576.245 238.603 576.262 237.078C576.245 235.587 576.776 234.311 577.853 233.25C578.93 232.189 580.223 231.659 581.731 231.659C583.189 231.659 584.457 232.189 585.534 233.25C586.628 234.311 587.183 235.587 587.199 237.078C587.183 238.089 586.918 239.009 586.404 239.837C585.907 240.666 585.244 241.329 584.415 241.826C583.603 242.307 582.708 242.547 581.731 242.547ZM617.533 212.842V220.249H594.614V212.842H617.533ZM625.295 242V191.091H644.386C648.297 191.091 651.578 191.82 654.23 193.278C656.898 194.737 658.911 196.742 660.27 199.294C661.646 201.83 662.333 204.713 662.333 207.945C662.333 211.209 661.646 214.109 660.27 216.645C658.895 219.18 656.865 221.177 654.18 222.636C651.495 224.077 648.189 224.798 644.262 224.798H631.609V217.217H643.019C645.306 217.217 647.178 216.819 648.637 216.023C650.095 215.228 651.172 214.134 651.868 212.742C652.581 211.35 652.937 209.751 652.937 207.945C652.937 206.138 652.581 204.547 651.868 203.172C651.172 201.796 650.087 200.728 648.612 199.965C647.154 199.186 645.273 198.797 642.969 198.797H634.517V242H625.295ZM668.244 242V191.091H687.733C691.412 191.091 694.469 191.671 696.905 192.831C699.358 193.974 701.189 195.54 702.399 197.529C703.625 199.518 704.238 201.772 704.238 204.29C704.238 206.362 703.841 208.135 703.045 209.61C702.25 211.068 701.181 212.253 699.838 213.165C698.496 214.076 696.996 214.731 695.339 215.129V215.626C697.145 215.725 698.877 216.28 700.534 217.291C702.208 218.286 703.575 219.694 704.636 221.517C705.697 223.34 706.227 225.544 706.227 228.129C706.227 230.764 705.589 233.134 704.313 235.239C703.037 237.327 701.114 238.976 698.546 240.185C695.977 241.395 692.746 242 688.851 242H668.244ZM677.466 234.294H687.385C690.732 234.294 693.143 233.656 694.618 232.38C696.11 231.087 696.855 229.43 696.855 227.408C696.855 225.9 696.483 224.541 695.737 223.332C694.991 222.105 693.931 221.144 692.555 220.448C691.18 219.736 689.539 219.379 687.633 219.379H677.466V234.294ZM677.466 212.742H686.589C688.18 212.742 689.614 212.452 690.89 211.872C692.166 211.276 693.168 210.439 693.897 209.362C694.643 208.268 695.016 206.975 695.016 205.484C695.016 203.512 694.32 201.888 692.928 200.612C691.552 199.335 689.506 198.697 686.788 198.697H677.466V212.742Z" fill="white"/>
</svg>
