<svg width="128" height="128" viewBox="0 0 128 128" fill="none" xmlns="http://www.w3.org/2000/svg">
<path d="M95.3444 36.6736L85.6988 51.7748C50.0696 56.2005 48.0033 62.9961 47.9041 64.0818C47.9022 64.1789 47.9021 64.2303 47.9021 64.2303C47.9021 64.2303 47.8952 64.1789 47.9041 64.0818C47.9286 62.838 48.2511 54.0872 52.4871 49.4655C57.0541 44.4827 95.3444 36.6736 95.3444 36.6736Z" fill="#5D46B6"/>
<path d="M82.9398 57.7468L74.3823 72.1287C46.6449 72.5796 45.9175 78.9238 45.9435 79.7665C45.9482 79.827 45.9511 79.8587 45.9511 79.8587C45.9511 79.8587 45.9454 79.8266 45.9435 79.7665C45.8727 78.8421 45.3998 71.2034 48.7896 67.5374C52.4012 63.6315 82.9398 57.7468 82.9398 57.7468Z" fill="#5D46B6"/>
<path d="M36.5674 123.863L43.5208 128C43.5208 128 39.064 56.2544 44.7839 47.7954C50.5038 39.3364 102.015 28.1558 102.015 28.1558L117.653 1.87364C117.653 1.87364 90.2753 8.2675 70.7836 16.024C51.2918 23.7805 41.837 25.4387 35.7153 33.0343C29.5937 40.6299 36.5674 123.863 36.5674 123.863Z" fill="#FFA600"/>
<ellipse cx="53.5197" cy="92.1712" rx="6.71088" ry="7.68013" transform="rotate(-59.2464 53.5197 92.1712)" fill="#5D46B6"/>
</svg>
